<?xml version="1.0" standalone="no"?>
<!DOCTYPE svg PUBLIC "-//W3C//DTD SVG 20010904//EN"
 "http://www.w3.org/TR/2001/REC-SVG-20010904/DTD/svg10.dtd">
<svg version="1.0" xmlns="http://www.w3.org/2000/svg"
 width="400.000000pt" height="400.000000pt" viewBox="0 0 400.000000 400.000000"
 preserveAspectRatio="xMidYMid meet">

<g transform="translate(0.000000,400.000000) scale(0.100000,-0.100000)"
fill="#000000" stroke="none">
<path d="M656 3205 l-26 -24 0 -1096 c0 -1082 0 -1095 20 -1115 35 -35 73 -26
138 32 269 242 471 433 476 451 3 12 6 201 6 419 l0 397 61 133 c34 73 76 167
94 208 18 41 78 176 134 300 61 135 101 237 101 256 0 65 8 64 -511 64 l-466
0 -27 -25z"/>
<path d="M1933 3212 c-26 -19 -255 -523 -255 -560 0 -12 8 -32 17 -42 18 -19
34 -20 506 -20 l488 0 26 -22 26 -23 -1 -589 c0 -532 -2 -591 -17 -608 -15
-17 -50 -18 -635 -18 -453 0 -625 -3 -641 -12 -22 -11 -460 -407 -485 -436 -6
-9 -12 -30 -12 -48 0 -68 -80 -64 1210 -64 l1161 0 24 25 25 24 0 1181 0 1181
-25 24 -24 25 -683 0 c-632 0 -685 -2 -705 -18z"/>
<path d="M1812 2187 l-182 -182 180 -180 c99 -99 184 -181 189 -183 5 -2 91
78 192 178 l183 181 -185 185 c-101 101 -186 184 -189 184 -3 0 -87 -82 -188
-183z"/>
</g>
</svg>
