<svg width="120" height="28" viewBox="0 0 120 28" xmlns="http://www.w3.org/2000/svg" role="img" aria-label="Moss">
  <g fill="#16A34A">
    <circle cx="14" cy="14" r="10"/>
  </g>
  <g fill="#E5E7EB" transform="translate(30,5)">
    <path d="M0 18V0h3l5 8 5-8h3v18h-3V6l-5 8-5-8v12H0z"/>
    <path d="M25 18c-4 0-7-3-7-7s3-7 7-7c2 0 4 1 5 2l-2 2c-1-1-2-1-3-1-2 0-4 2-4 4s2 4 4 4c1 0 2 0 3-1l2 2c-1 1-3 2-5 2z"/>
    <path d="M39 18c-4 0-7-3-7-7s3-7 7-7c2 0 4 1 5 2l-2 2c-1-1-2-1-3-1-2 0-4 2-4 4s2 4 4 4c1 0 2 0 3-1l2 2c-1 1-3 2-5 2z"/>
    <path d="M49 18V4h3v14h-3z"/>
  </g>
</svg>
